<?xml version="1.0" encoding="UTF-8" standalone="no"?>
<!-- Created with Inkscape (http://www.inkscape.org/) -->

<svg
   xmlns:dc="http://purl.org/dc/elements/1.1/"
   xmlns:cc="http://creativecommons.org/ns#"
   xmlns:rdf="http://www.w3.org/1999/02/22-rdf-syntax-ns#"
   xmlns:svg="http://www.w3.org/2000/svg"
   xmlns="http://www.w3.org/2000/svg"
   xmlns:sodipodi="http://sodipodi.sourceforge.net/DTD/sodipodi-0.dtd"
   xmlns:inkscape="http://www.inkscape.org/namespaces/inkscape"
   id="svg4155"
   version="1.1"
   inkscape:version="0.91 r13725"
   xml:space="preserve"
   width="360"
   height="360"
   viewBox="0 0 360 360"
   sodipodi:docname="HS_Comm.pdf"><metadata
     id="metadata4161"><rdf:RDF><cc:Work
         rdf:about=""><dc:format>image/svg+xml</dc:format><dc:type
           rdf:resource="http://purl.org/dc/dcmitype/StillImage" /><dc:title></dc:title></cc:Work></rdf:RDF></metadata><defs
     id="defs4159"><clipPath
       clipPathUnits="userSpaceOnUse"
       id="clipPath4185"><path
         d="m 55.12,37.28 218.48,0 0,190.46 -218.48,0 0,-190.46 z"
         id="path4187"
         inkscape:connector-curvature="0" /></clipPath></defs><sodipodi:namedview
     pagecolor="#ffffff"
     bordercolor="#666666"
     borderopacity="1"
     objecttolerance="10"
     gridtolerance="10"
     guidetolerance="10"
     inkscape:pageopacity="0"
     inkscape:pageshadow="2"
     inkscape:window-width="1288"
     inkscape:window-height="765"
     id="namedview4157"
     showgrid="false"
     inkscape:zoom="1.625"
     inkscape:cx="180"
     inkscape:cy="180"
     inkscape:window-x="0"
     inkscape:window-y="0"
     inkscape:window-maximized="0"
     inkscape:current-layer="g4163" /><g
     id="g4163"
     inkscape:groupmode="layer"
     inkscape:label="HS_Comm"
     transform="matrix(1.25,0,0,-1.25,0,360)"><g
       id="g4165" /><g
       id="g4167" /><g
       id="g4169" /><g
       id="g4171"><path
         d="M 0,0 288,0 288,288 0,288 0,0 Z"
         style="fill:#ffffff;fill-opacity:1;fill-rule:nonzero;stroke:#ffffff;stroke-width:1.05999994;stroke-linecap:round;stroke-linejoin:round;stroke-miterlimit:10;stroke-dasharray:none;stroke-opacity:1"
         id="path4173"
         inkscape:connector-curvature="0" /></g><g
       id="g4175" /><g
       id="g4177" /><g
       id="g4179" /><path
       d="m 55.12,37.28 218.48,0 0,190.46 -218.48,0 0,-190.46 z"
       style="fill:#e5e5e5;fill-opacity:1;fill-rule:nonzero;stroke:none"
       id="path4189"
       inkscape:connector-curvature="0" /><path
       d="m 55.12,62.6 218.48,0"
       style="fill:none;stroke:#f2f2f2;stroke-width:0.52999997;stroke-linecap:butt;stroke-linejoin:round;stroke-miterlimit:10;stroke-dasharray:none;stroke-opacity:1"
       id="path4191"
       inkscape:connector-curvature="0" /><path
       d="m 55.12,102.6 218.48,0"
       style="fill:none;stroke:#f2f2f2;stroke-width:0.52999997;stroke-linecap:butt;stroke-linejoin:round;stroke-miterlimit:10;stroke-dasharray:none;stroke-opacity:1"
       id="path4193"
       inkscape:connector-curvature="0" /><path
       d="m 55.12,142.59 218.48,0"
       style="fill:none;stroke:#f2f2f2;stroke-width:0.52999997;stroke-linecap:butt;stroke-linejoin:round;stroke-miterlimit:10;stroke-dasharray:none;stroke-opacity:1"
       id="path4195"
       inkscape:connector-curvature="0" /><path
       d="m 55.12,182.58 218.48,0"
       style="fill:none;stroke:#f2f2f2;stroke-width:0.52999997;stroke-linecap:butt;stroke-linejoin:round;stroke-miterlimit:10;stroke-dasharray:none;stroke-opacity:1"
       id="path4197"
       inkscape:connector-curvature="0" /><path
       d="m 55.12,222.57 218.48,0"
       style="fill:none;stroke:#f2f2f2;stroke-width:0.52999997;stroke-linecap:butt;stroke-linejoin:round;stroke-miterlimit:10;stroke-dasharray:none;stroke-opacity:1"
       id="path4199"
       inkscape:connector-curvature="0" /><path
       d="m 101.24,37.28 0,190.47"
       style="fill:none;stroke:#f2f2f2;stroke-width:0.52999997;stroke-linecap:butt;stroke-linejoin:round;stroke-miterlimit:10;stroke-dasharray:none;stroke-opacity:1"
       id="path4201"
       inkscape:connector-curvature="0" /><path
       d="m 173.63,37.28 0,190.47"
       style="fill:none;stroke:#f2f2f2;stroke-width:0.52999997;stroke-linecap:butt;stroke-linejoin:round;stroke-miterlimit:10;stroke-dasharray:none;stroke-opacity:1"
       id="path4203"
       inkscape:connector-curvature="0" /><path
       d="m 246.01,37.28 0,190.47"
       style="fill:none;stroke:#f2f2f2;stroke-width:0.52999997;stroke-linecap:butt;stroke-linejoin:round;stroke-miterlimit:10;stroke-dasharray:none;stroke-opacity:1"
       id="path4205"
       inkscape:connector-curvature="0" /><path
       d="m 55.12,42.61 218.48,0"
       style="fill:none;stroke:#ffffff;stroke-width:1.05999994;stroke-linecap:butt;stroke-linejoin:round;stroke-miterlimit:10;stroke-dasharray:none;stroke-opacity:1"
       id="path4207"
       inkscape:connector-curvature="0" /><path
       d="m 55.12,82.6 218.48,0"
       style="fill:none;stroke:#ffffff;stroke-width:1.05999994;stroke-linecap:butt;stroke-linejoin:round;stroke-miterlimit:10;stroke-dasharray:none;stroke-opacity:1"
       id="path4209"
       inkscape:connector-curvature="0" /><path
       d="m 55.12,122.59 218.48,0"
       style="fill:none;stroke:#ffffff;stroke-width:1.05999994;stroke-linecap:butt;stroke-linejoin:round;stroke-miterlimit:10;stroke-dasharray:none;stroke-opacity:1"
       id="path4211"
       inkscape:connector-curvature="0" /><path
       d="m 55.12,162.58 218.48,0"
       style="fill:none;stroke:#ffffff;stroke-width:1.05999994;stroke-linecap:butt;stroke-linejoin:round;stroke-miterlimit:10;stroke-dasharray:none;stroke-opacity:1"
       id="path4213"
       inkscape:connector-curvature="0" /><path
       d="m 55.12,202.57 218.48,0"
       style="fill:none;stroke:#ffffff;stroke-width:1.05999994;stroke-linecap:butt;stroke-linejoin:round;stroke-miterlimit:10;stroke-dasharray:none;stroke-opacity:1"
       id="path4215"
       inkscape:connector-curvature="0" /><path
       d="m 65.05,37.28 0,190.47"
       style="fill:none;stroke:#ffffff;stroke-width:1.05999994;stroke-linecap:butt;stroke-linejoin:round;stroke-miterlimit:10;stroke-dasharray:none;stroke-opacity:1"
       id="path4217"
       inkscape:connector-curvature="0" /><path
       d="m 137.44,37.28 0,190.47"
       style="fill:none;stroke:#ffffff;stroke-width:1.05999994;stroke-linecap:butt;stroke-linejoin:round;stroke-miterlimit:10;stroke-dasharray:none;stroke-opacity:1"
       id="path4219"
       inkscape:connector-curvature="0" /><path
       d="m 209.82,37.28 0,190.47"
       style="fill:none;stroke:#ffffff;stroke-width:1.05999994;stroke-linecap:butt;stroke-linejoin:round;stroke-miterlimit:10;stroke-dasharray:none;stroke-opacity:1"
       id="path4221"
       inkscape:connector-curvature="0" /><path
       d="m 65.05,60.37 2.52,6.21 2.51,6.04 2.52,5.88 2.51,5.71 2.51,5.54 2.52,5.36 2.51,5.18 2.52,4.99 2.51,4.81 2.51,4.6 2.52,4.37 2.51,4.15 2.52,3.94 2.51,3.74 2.52,3.55 2.51,3.38 2.51,3.2 2.52,3.05 2.51,2.92 2.52,2.68 2.51,2.17 2.51,1.71 2.52,1.36 2.51,1.09 2.52,0.93 2.51,0.86 2.51,0.86 2.52,0.95 2.51,1.12 2.52,1.15 2.51,1.01 2.52,0.9 2.51,0.85 2.51,0.82 2.52,0.83 2.51,0.85 2.52,0.87 2.51,0.9 2.51,0.91 2.52,0.86 2.51,0.81 2.52,0.78 2.51,0.76 2.51,0.78 2.52,0.78 2.51,0.81 2.52,0.81 2.51,0.82 2.52,0.79 2.51,0.76 2.51,0.71 2.52,0.68 2.51,0.65 2.52,0.64 2.51,0.63 2.51,0.62 2.52,0.63 2.51,0.61 2.52,0.6 2.51,0.58 2.51,0.56 2.52,0.55 2.51,0.55 2.52,0.55 2.51,0.55 2.52,0.55 2.51,0.57 2.51,0.59 2.52,0.61 2.51,0.64 2.52,0.68 2.51,0.71 2.51,0.76 2.52,0.79 2.51,0.83 2.52,0.87 2.51,0.89 2.52,0.93 2.51,0.96 0,-13.57 -2.51,0.12 -2.52,0.08 -2.51,0.03 -2.52,-0.03 -2.51,-0.09 -2.52,-0.14 -2.51,-0.21 -2.51,-0.26 -2.52,-0.32 -2.51,-0.38 -2.52,-0.43 -2.51,-0.48 -2.51,-0.51 -2.52,-0.55 -2.51,-0.58 -2.52,-0.6 -2.51,-0.62 -2.52,-0.65 -2.51,-0.65 -2.51,-0.67 -2.52,-0.65 -2.51,-0.66 -2.52,-0.66 -2.51,-0.68 -2.51,-0.7 -2.52,-0.72 -2.51,-0.73 -2.52,-0.74 -2.51,-0.74 -2.51,-0.72 -2.52,-0.69 -2.51,-0.68 -2.52,-0.69 -2.51,-0.74 -2.52,-0.77 -2.51,-0.83 -2.51,-0.87 -2.52,-0.91 -2.51,-0.93 -2.52,-0.93 -2.51,-0.89 -2.51,-0.8 -2.52,-0.76 -2.51,-0.75 -2.52,-0.78 -2.51,-0.85 -2.51,-0.93 -2.52,-1.02 -2.51,-1.11 -2.52,-1.2 -2.51,-1.09 -2.52,-0.89 -2.51,-0.78 -2.51,-0.78 -2.52,-0.86 -2.51,-1.04 -2.52,-1.32 -2.51,-1.66 -2.51,-2.11 -2.52,-2.6 -2.51,-2.82 -2.52,-2.97 -2.51,-3.13 -2.51,-3.31 -2.52,-3.52 -2.51,-3.75 -2.52,-3.99 -2.51,-4.27 -2.52,-4.55 -2.51,-4.87 -2.51,-5.16 -2.52,-5.44 -2.51,-5.73 -2.52,-6.01 -2.51,-6.29 -2.51,-6.54 -2.52,-6.8 -2.51,-7.05 -2.52,-7.29 0,13.57 z"
       style="fill:#999999;fill-opacity:0.4;fill-rule:nonzero;stroke:none"
       id="path4227"
       inkscape:connector-curvature="0" /><path
       d="m 65.05,53.59 2.52,6.75 2.51,6.54 2.52,6.34 2.51,6.13 2.51,5.91 2.52,5.68 2.51,5.46 2.52,5.22 2.51,4.98 2.51,4.73 2.52,4.47 2.51,4.21 2.52,3.96 2.51,3.75 2.52,3.53 2.51,3.34 2.51,3.17 2.52,3.01 2.51,2.87 2.52,2.64 2.51,2.14 2.51,1.69 2.52,1.33 2.51,1.07 2.52,0.9 2.51,0.81 2.51,0.82 2.52,0.92 2.51,1.11 2.52,1.18 2.51,1.05 2.52,0.97 2.51,0.88 2.51,0.84 2.52,0.81 2.51,0.8 2.52,0.81 2.51,0.85 2.51,0.9 2.52,0.9 2.51,0.86 2.52,0.85 2.51,0.82 2.51,0.8 2.52,0.78 2.51,0.77 2.52,0.75 2.51,0.75 2.52,0.74 2.51,0.74 2.51,0.72 2.52,0.71 2.51,0.7 2.52,0.67 2.51,0.67 2.51,0.65 2.52,0.64 2.51,0.64 2.52,0.63 2.51,0.62 2.51,0.61 2.52,0.6 2.51,0.58 2.52,0.58 2.51,0.56 2.52,0.55 2.51,0.54 2.51,0.53 2.52,0.52 2.51,0.51 2.52,0.5 2.51,0.49 2.51,0.48 2.52,0.47 2.51,0.46 2.52,0.45 2.51,0.43 2.52,0.43 2.51,0.41"
       style="fill:none;stroke:#00ba38;stroke-width:4.25;stroke-linecap:butt;stroke-linejoin:round;stroke-miterlimit:1;stroke-dasharray:none;stroke-opacity:1"
       id="path4229"
       inkscape:connector-curvature="0" /><g
       id="g4235" /><g
       id="g4237" /><g
       id="g4239"><text
         transform="matrix(1,0,0,-1,23.02,39.02)"
         style="font-variant:normal;font-weight:normal;font-size:10px;font-family:Helvetica;-inkscape-font-specification:Helvetica;writing-mode:lr-tb;fill:#7f7f7f;fill-opacity:1;fill-rule:nonzero;stroke:none"
         id="text4241"><tspan
           x="0 5.5599999 8.3400002 13.9 19.459999"
           y="0"
           sodipodi:role="line"
           id="tspan4243">0.175</tspan></text>
<text
         transform="matrix(1,0,0,-1,23.02,79.01)"
         style="font-variant:normal;font-weight:normal;font-size:10px;font-family:Helvetica;-inkscape-font-specification:Helvetica;writing-mode:lr-tb;fill:#7f7f7f;fill-opacity:1;fill-rule:nonzero;stroke:none"
         id="text4245"><tspan
           x="0 5.5599999 8.3400002 13.9 19.459999"
           y="0"
           sodipodi:role="line"
           id="tspan4247">0.200</tspan></text>
<text
         transform="matrix(1,0,0,-1,23.02,119)"
         style="font-variant:normal;font-weight:normal;font-size:10px;font-family:Helvetica;-inkscape-font-specification:Helvetica;writing-mode:lr-tb;fill:#7f7f7f;fill-opacity:1;fill-rule:nonzero;stroke:none"
         id="text4249"><tspan
           x="0 5.5599999 8.3400002 13.9 19.459999"
           y="0"
           sodipodi:role="line"
           id="tspan4251">0.225</tspan></text>
<text
         transform="matrix(1,0,0,-1,23.02,158.99)"
         style="font-variant:normal;font-weight:normal;font-size:10px;font-family:Helvetica;-inkscape-font-specification:Helvetica;writing-mode:lr-tb;fill:#7f7f7f;fill-opacity:1;fill-rule:nonzero;stroke:none"
         id="text4253"><tspan
           x="0 5.5599999 8.3400002 13.9 19.459999"
           y="0"
           sodipodi:role="line"
           id="tspan4255">0.250</tspan></text>
<text
         transform="matrix(1,0,0,-1,23.02,198.98)"
         style="font-variant:normal;font-weight:normal;font-size:10px;font-family:Helvetica;-inkscape-font-specification:Helvetica;writing-mode:lr-tb;fill:#7f7f7f;fill-opacity:1;fill-rule:nonzero;stroke:none"
         id="text4257"><tspan
           x="0 5.5599999 8.3400002 13.9 19.459999"
           y="0"
           sodipodi:role="line"
           id="tspan4259">0.275</tspan></text>
</g><g
       id="g4261" /><g
       id="g4263"><path
         d="m 50.87,42.61 4.25,0"
         style="fill:none;stroke:#7f7f7f;stroke-width:1.05999994;stroke-linecap:butt;stroke-linejoin:round;stroke-miterlimit:10;stroke-dasharray:none;stroke-opacity:1"
         id="path4265"
         inkscape:connector-curvature="0" /><path
         d="m 50.87,82.6 4.25,0"
         style="fill:none;stroke:#7f7f7f;stroke-width:1.05999994;stroke-linecap:butt;stroke-linejoin:round;stroke-miterlimit:10;stroke-dasharray:none;stroke-opacity:1"
         id="path4267"
         inkscape:connector-curvature="0" /><path
         d="m 50.87,122.59 4.25,0"
         style="fill:none;stroke:#7f7f7f;stroke-width:1.05999994;stroke-linecap:butt;stroke-linejoin:round;stroke-miterlimit:10;stroke-dasharray:none;stroke-opacity:1"
         id="path4269"
         inkscape:connector-curvature="0" /><path
         d="m 50.87,162.58 4.25,0"
         style="fill:none;stroke:#7f7f7f;stroke-width:1.05999994;stroke-linecap:butt;stroke-linejoin:round;stroke-miterlimit:10;stroke-dasharray:none;stroke-opacity:1"
         id="path4271"
         inkscape:connector-curvature="0" /><path
         d="m 50.87,202.57 4.25,0"
         style="fill:none;stroke:#7f7f7f;stroke-width:1.05999994;stroke-linecap:butt;stroke-linejoin:round;stroke-miterlimit:10;stroke-dasharray:none;stroke-opacity:1"
         id="path4273"
         inkscape:connector-curvature="0" /></g><g
       id="g4275" /><g
       id="g4277" /><g
       id="g4279" /><g
       id="g4281" /><g
       id="g4283" /><g
       id="g4285"><path
         d="m 65.05,33.03 0,4.25"
         style="fill:none;stroke:#7f7f7f;stroke-width:1.05999994;stroke-linecap:butt;stroke-linejoin:round;stroke-miterlimit:10;stroke-dasharray:none;stroke-opacity:1"
         id="path4287"
         inkscape:connector-curvature="0" /><path
         d="m 137.44,33.03 0,4.25"
         style="fill:none;stroke:#7f7f7f;stroke-width:1.05999994;stroke-linecap:butt;stroke-linejoin:round;stroke-miterlimit:10;stroke-dasharray:none;stroke-opacity:1"
         id="path4289"
         inkscape:connector-curvature="0" /><path
         d="m 209.82,33.03 0,4.25"
         style="fill:none;stroke:#7f7f7f;stroke-width:1.05999994;stroke-linecap:butt;stroke-linejoin:round;stroke-miterlimit:10;stroke-dasharray:none;stroke-opacity:1"
         id="path4291"
         inkscape:connector-curvature="0" /></g><g
       id="g4293" /><g
       id="g4295"><text
         transform="matrix(1,0,0,-1,62.27,23.02)"
         style="font-variant:normal;font-weight:normal;font-size:10px;font-family:Helvetica;-inkscape-font-specification:Helvetica;writing-mode:lr-tb;fill:#7f7f7f;fill-opacity:1;fill-rule:nonzero;stroke:none"
         id="text4297"><tspan
           x="0"
           y="0"
           id="tspan4299">0</tspan></text>
<text
         transform="matrix(1,0,0,-1,131.88,23.02)"
         style="font-variant:normal;font-weight:normal;font-size:10px;font-family:Helvetica;-inkscape-font-specification:Helvetica;writing-mode:lr-tb;fill:#7f7f7f;fill-opacity:1;fill-rule:nonzero;stroke:none"
         id="text4301"><tspan
           x="0 5.5599999"
           y="0"
           sodipodi:role="line"
           id="tspan4303">50</tspan></text>
<text
         transform="matrix(1,0,0,-1,201.48,23.02)"
         style="font-variant:normal;font-weight:normal;font-size:10px;font-family:Helvetica;-inkscape-font-specification:Helvetica;writing-mode:lr-tb;fill:#7f7f7f;fill-opacity:1;fill-rule:nonzero;stroke:none"
         id="text4305"><tspan
           x="0 5.5599999 11.12"
           y="0"
           sodipodi:role="line"
           id="tspan4307">100</tspan></text>
</g><g
       id="g4309" /><g
       id="g4311" /><g
       id="g4313" /><g
       id="g4315" /><g
       id="g4317"><text
         transform="matrix(1,0,0,-1,149.53,10.8)"
         style="font-variant:normal;font-weight:normal;font-size:12px;font-family:Helvetica;-inkscape-font-specification:Helvetica;writing-mode:lr-tb;fill:#000000;fill-opacity:1;fill-rule:nonzero;stroke:none"
         id="text4319"><tspan
           x="0 6.3239999 12.996 19.667999 23.664"
           y="0"
           sodipodi:role="line"
           id="tspan4321">Years</tspan></text>
</g><g
       id="g4323" /><g
       id="g4325"><text
         transform="matrix(0,1,1,0,19.42,22.8)"
         style="font-variant:normal;font-weight:normal;font-size:12px;font-family:Helvetica;-inkscape-font-specification:Helvetica;writing-mode:lr-tb;fill:#000000;fill-opacity:1;fill-rule:nonzero;stroke:none"
         id="text4327"><tspan
           x="0 10.668 14.004 22.007999 24.672001 31.344 38.015999 41.352001 48.396 55.068001 61.068001 67.739998 74.171997 80.844002 83.508003 90.18 94.536003 100.536 103.872 110.544 113.88 117.216 125.88 132.552 139.224 143.39999 146.064 152.73599 159.408 162.744 166.08 172.752 179.424 182.088 188.088 190.752 197.424 204.09599 210.76801 213.43201"
           y="0"
           sodipodi:role="line"
           id="tspan4329">% Sign Vocabulary of Hearing Individuals</tspan></text>
</g><g
       id="g4331" /><g
       id="g4333" /><g
       id="g4335" /><g
       id="g4337" /><g
       id="g4339" /><g
       id="g4341"><path
         d="m 68.43,237.78 191.86,0 0,25.78 -191.86,0 0,-25.78 z"
         style="fill:#ffffff;fill-opacity:1;fill-rule:nonzero;stroke:none"
         id="path4343"
         inkscape:connector-curvature="0" /></g><g
       id="g4345" /><g
       id="g4347" /><g
       id="g4349" /><g
       id="g4351"><path
         d="m 77,242.03 17.28,0 0,17.28 -17.28,0 0,-17.28 z"
         style="fill:#f2f2f2;fill-opacity:1;fill-rule:nonzero;stroke:#ffffff;stroke-width:1.05999994;stroke-linecap:round;stroke-linejoin:round;stroke-miterlimit:10;stroke-dasharray:none;stroke-opacity:1"
         id="path4353"
         inkscape:connector-curvature="0" /></g><g
       id="g4355" /><g
       id="g4357"><path
         d="m 77,242.03 17.28,0 0,17.28 -17.28,0 0,-17.28 z"
         style="fill:#999999;fill-opacity:0.4;fill-rule:nonzero;stroke:none"
         id="path4359"
         inkscape:connector-curvature="0" /><path
         d="m 78.73,250.67 13.82,0"
         style="fill:none;stroke:#f8766d;stroke-width:4.25;stroke-linecap:butt;stroke-linejoin:round;stroke-miterlimit:10;stroke-dasharray:none;stroke-opacity:1"
         id="path4361"
         inkscape:connector-curvature="0" /></g><g
       id="g4363" /><g
       id="g4365"><path
         d="m 141.24,242.03 17.28,0 0,17.28 -17.28,0 0,-17.28 z"
         style="fill:#f2f2f2;fill-opacity:1;fill-rule:nonzero;stroke:#ffffff;stroke-width:1.05999994;stroke-linecap:round;stroke-linejoin:round;stroke-miterlimit:10;stroke-dasharray:none;stroke-opacity:1"
         id="path4367"
         inkscape:connector-curvature="0" /></g><g
       id="g4369" /><g
       id="g4371"><path
         d="m 141.24,242.03 17.28,0 0,17.28 -17.28,0 0,-17.28 z"
         style="fill:#999999;fill-opacity:0.4;fill-rule:nonzero;stroke:none"
         id="path4373"
         inkscape:connector-curvature="0" /><path
         d="m 142.97,250.67 13.82,0"
         style="fill:none;stroke:#00ba38;stroke-width:4.25;stroke-linecap:butt;stroke-linejoin:round;stroke-miterlimit:10;stroke-dasharray:none;stroke-opacity:1"
         id="path4375"
         inkscape:connector-curvature="0" /></g><g
       id="g4377" /><g
       id="g4379"><path
         d="m 176.18,242.03 17.28,0 0,17.28 -17.28,0 0,-17.28 z"
         style="fill:#f2f2f2;fill-opacity:1;fill-rule:nonzero;stroke:#ffffff;stroke-width:1.05999994;stroke-linecap:round;stroke-linejoin:round;stroke-miterlimit:10;stroke-dasharray:none;stroke-opacity:1"
         id="path4381"
         inkscape:connector-curvature="0" /></g><g
       id="g4383" /><g
       id="g4385"><path
         d="m 176.18,242.03 17.28,0 0,17.28 -17.28,0 0,-17.28 z"
         style="fill:#999999;fill-opacity:0.4;fill-rule:nonzero;stroke:none"
         id="path4387"
         inkscape:connector-curvature="0" /><path
         d="m 177.91,250.67 13.82,0"
         style="fill:none;stroke:#619cff;stroke-width:4.25;stroke-linecap:butt;stroke-linejoin:round;stroke-miterlimit:10;stroke-dasharray:none;stroke-opacity:1"
         id="path4389"
         inkscape:connector-curvature="0" /></g><g
       id="g4391" /><g
       id="g4393"><text
         transform="matrix(1,0,0,-1,96.44,247.08)"
         style="font-variant:normal;font-weight:normal;font-size:10px;font-family:Helvetica;-inkscape-font-specification:Helvetica;writing-mode:lr-tb;fill:#000000;fill-opacity:1;fill-rule:nonzero;stroke:none"
         id="text4395"><tspan
           x="0 2.78 11.11 16.67 22.23 25.959999 28.74 34.299999 39.860001"
           y="0"
           sodipodi:role="line"
           id="tspan4397">Important</tspan></text>
</g><g
       id="g4399" /><g
       id="g4401"><text
         transform="matrix(1,0,0,-1,160.68,247.08)"
         style="font-variant:normal;font-weight:normal;font-size:10px;font-family:Helvetica;-inkscape-font-specification:Helvetica;writing-mode:lr-tb;fill:#000000;fill-opacity:1;fill-rule:nonzero;stroke:none"
         id="text4403"><tspan
           x="0 6.6700001"
           y="0"
           sodipodi:role="line"
           id="tspan4405">KK</tspan></text>
</g><g
       id="g4407" /><g
       id="g4409"><text
         transform="matrix(1,0,0,-1,195.62,247.08)"
         style="font-variant:normal;font-weight:normal;font-size:10px;font-family:Helvetica;-inkscape-font-specification:Helvetica;writing-mode:lr-tb;fill:#000000;fill-opacity:1;fill-rule:nonzero;stroke:none"
         id="text4411"><tspan
           x="0 7.2199998 12.78 15.56 18.34 20.559999 28.889999 34.450001 40.009998 43.740002 46.52 52.080002 57.639999"
           y="0"
           sodipodi:role="line"
           id="tspan4413">Not important</tspan></text>
</g><g
       id="g4415" /><g
       id="g4417" /><g
       id="g4419" /><g
       id="g4421" /><g
       id="g4423" /><g
       id="g4425" /><g
       id="g4427" /><g
       id="g4429" /><g
       id="g4431" /><g
       id="g4433" /><g
       id="g4435" /><g
       id="g4437" /></g></svg>